<svg xmlns="http://www.w3.org/2000/svg" viewBox="0 0 64 64">
  <circle cx="32" cy="32" r="30" fill="#1a1a1a"/>
  <g>
    <circle cx="22" cy="13" r="3.5" fill="#9a6a3a"/>
    <circle cx="32" cy="11" r="3.5" fill="#bd7a3a"/>
    <circle cx="42" cy="13" r="3.5" fill="#9a6a3a"/>
    <circle cx="13" cy="22" r="3.5" fill="#bd7a3a"/>
    <circle cx="22" cy="22" r="3.5" fill="#7aaa3a"/>
    <circle cx="32" cy="20" r="3.5" fill="#bd7a3a"/>
    <circle cx="42" cy="22" r="3.5" fill="#7aaa3a"/>
    <circle cx="51" cy="22" r="3.5" fill="#9a6a3a"/>
    <circle cx="11" cy="32" r="3.5" fill="#9a6a3a"/>
    <circle cx="20" cy="31" r="3.5" fill="#bd7a3a"/>
    <circle cx="30" cy="30" r="3.5" fill="#7aaa3a"/>
    <circle cx="40" cy="31" r="3.5" fill="#7aaa3a"/>
    <circle cx="50" cy="32" r="3.5" fill="#bd7a3a"/>
    <circle cx="13" cy="42" r="3.5" fill="#bd7a3a"/>
    <circle cx="22" cy="42" r="3.5" fill="#7aaa3a"/>
    <circle cx="32" cy="44" r="3.5" fill="#7aaa3a"/>
    <circle cx="42" cy="42" r="3.5" fill="#bd7a3a"/>
    <circle cx="51" cy="42" r="3.5" fill="#9a6a3a"/>
    <circle cx="22" cy="51" r="3.5" fill="#9a6a3a"/>
    <circle cx="32" cy="53" r="3.5" fill="#bd7a3a"/>
    <circle cx="42" cy="51" r="3.5" fill="#9a6a3a"/>
  </g>
</svg>
